<?xml version="1.0" standalone="no"?>
<!DOCTYPE svg PUBLIC "-//W3C//DTD SVG 20010904//EN"
 "http://www.w3.org/TR/2001/REC-SVG-20010904/DTD/svg10.dtd">
<svg version="1.0" xmlns="http://www.w3.org/2000/svg"
 width="208.000000pt" height="238.000000pt" viewBox="0 0 208.000000 238.000000"
 preserveAspectRatio="xMidYMid meet">

<g transform="translate(0.000000,238.000000) scale(0.100000,-0.100000)"
fill="#000000" stroke="none">
<path d="M353 2098 c-4 -7 -45 -87 -90 -178 l-83 -165 0 -129 c0 -117 2 -132
21 -152 19 -21 20 -34 22 -298 l2 -276 -22 0 -23 0 0 -315 0 -315 860 0 860 0
0 315 0 315 -22 0 -23 0 2 276 c2 264 3 277 22 298 19 20 21 35 21 152 l0 129
-88 175 -88 175 -681 3 c-539 2 -683 0 -690 -10z m355 -54 c22 -6 22 -7 20
-183 l-3 -176 -44 -3 c-24 -2 -48 1 -53 6 -12 12 37 362 50 362 4 0 17 -3 30
-6z m202 -181 l0 -183 -55 0 -55 0 0 183 0 183 55 0 55 0 0 -183z m185 1 l0
-179 -55 0 -55 0 -3 170 c-1 93 -1 174 1 180 3 5 29 10 58 9 l54 0 0 -180z
m185 -1 l0 -183 -55 0 -55 0 0 183 0 183 55 0 55 0 0 -183z m139 120 c36 -232
42 -286 33 -295 -5 -5 -29 -8 -53 -6 l-44 3 -3 177 c-2 162 -1 177 15 181 38
10 41 6 52 -60z m-952 45 c-2 -7 -24 -83 -47 -168 -24 -85 -48 -161 -53 -167
-11 -15 -113 -18 -121 -4 -3 5 32 86 79 180 83 167 85 171 116 171 21 0 30 -4
26 -12z m128 -15 c-3 -16 -9 -62 -15 -103 -19 -144 -30 -212 -36 -221 -6 -11
-91 -12 -97 -1 -4 6 38 164 80 300 14 47 19 52 44 52 26 0 28 -3 24 -27z m958
-25 c42 -136 84 -294 80 -300 -6 -11 -91 -10 -97 1 -6 9 -17 77 -36 221 -6 41
-12 87 -15 103 -4 24 -2 27 24 27 25 0 30 -5 44 -52z m202 -119 c47 -94 82
-175 79 -180 -8 -14 -110 -11 -121 4 -5 6 -29 82 -53 167 -23 85 -45 161 -47
168 -4 8 5 12 26 12 31 0 33 -4 116 -171z m-1395 -283 c0 -48 -9 -66 -38 -77
-42 -16 -72 12 -72 66 l0 45 55 0 55 0 0 -34z m188 1 c7 -59 -49 -102 -93 -73
-21 14 -25 25 -25 62 l0 45 58 -3 c54 -3 57 -4 60 -31z m182 -7 c0 -49 -30
-85 -63 -76 -12 3 -25 6 -28 6 -11 0 -29 51 -29 80 0 30 0 30 60 30 l60 0 0
-40z m178 -7 c-2 -39 -8 -50 -29 -62 -24 -13 -29 -13 -53 2 -22 15 -26 25 -26
62 l0 45 56 0 55 0 -3 -47z m190 5 c6 -65 -55 -101 -98 -58 -20 20 -28 79 -13
94 4 4 30 6 58 4 50 -3 50 -3 53 -40z m180 -5 c-2 -39 -8 -50 -29 -62 -24 -13
-29 -13 -53 2 -22 15 -26 25 -26 62 l0 45 56 0 55 0 -3 -47z m192 17 c0 -29
-18 -80 -29 -80 -3 0 -16 -3 -28 -6 -33 -9 -63 27 -63 76 l0 40 60 0 c60 0 60
0 60 -30z m180 -14 c0 -35 -5 -48 -22 -60 -31 -22 -45 -20 -73 9 -24 23 -34
73 -18 88 3 4 30 7 60 7 l53 0 0 -44z m180 -1 c0 -54 -30 -82 -72 -66 -29 11
-38 29 -38 77 l0 34 55 0 55 0 0 -45z m-1392 -126 l44 -22 50 21 50 21 39 -20
c41 -21 75 -19 117 8 21 13 28 12 66 -6 43 -21 73 -19 123 8 16 8 29 6 59 -10
42 -21 81 -19 122 8 21 13 27 12 66 -6 43 -21 73 -19 123 8 16 8 29 6 59 -10
42 -21 80 -18 121 8 20 14 27 13 66 -6 45 -22 78 -19 124 9 17 11 24 10 44 -3
13 -10 31 -17 41 -17 10 0 18 -4 18 -10 0 -5 0 -128 1 -272 l0 -263 -26 -3
-25 -3 0 120 0 121 -44 0 -44 0 -4 65 c-3 49 -9 70 -26 88 -18 19 -21 31 -16
52 13 52 -46 63 -67 13 -25 -63 -65 -71 -56 -13 6 35 -4 45 -44 45 -12 0 -19
-7 -19 -19 0 -24 -39 -73 -54 -68 -6 2 -11 21 -11 43 0 35 -3 39 -27 42 -23 3
-28 -1 -34 -25 -4 -15 -23 -42 -42 -59 -33 -28 -36 -36 -40 -97 l-4 -67 -44 0
-44 0 0 -120 0 -120 -60 0 c-58 0 -60 1 -60 25 0 56 -64 145 -105 145 -8 0
-15 19 -20 48 -8 54 -42 105 -87 128 -42 22 -113 22 -137 0 -18 -16 -21 -16
-44 -1 -14 9 -48 17 -78 17 -44 1 -55 -2 -72 -23 -19 -24 -20 -77 -2 -136 5
-17 3 -23 -7 -23 -9 0 -28 -10 -43 -22 -25 -19 -27 -26 -22 -72 2 -28 8 -59
12 -69 7 -16 3 -18 -29 -15 l-37 3 0 263 c1 144 1 267 1 272 0 6 8 10 18 10
10 0 27 7 38 15 24 18 20 19 72 -6z m872 -219 c6 -12 10 -38 8 -58 -3 -32 -7
-37 -30 -40 -27 -3 -28 -2 -28 51 0 29 3 57 7 60 12 13 32 7 43 -13z m113 13
c3 -5 7 -30 8 -58 4 -48 3 -50 -21 -50 -22 0 -25 5 -28 43 -4 51 24 94 41 65z
m125 -5 c7 -7 12 -34 12 -61 0 -47 -1 -48 -27 -45 -25 3 -28 7 -31 46 -4 58
19 87 46 60z m-989 -63 c31 -15 57 -65 47 -90 -18 -47 -116 16 -116 74 0 36
22 41 69 16z m181 0 c34 -18 50 -43 50 -79 0 -54 -93 -19 -109 41 -16 56 2 67
59 38z m905 -200 l0 -80 -237 -3 -238 -2 0 78 c0 43 3 82 7 86 4 3 110 5 237
4 l231 -3 0 -80z m-1143 14 c18 -10 48 -65 48 -89 0 -11 -49 -14 -75 -4 -19 8
-45 55 -45 84 0 23 37 28 72 9z m192 -11 c15 -13 29 -38 32 -55 6 -32 6 -33
-28 -33 -41 0 -75 31 -84 78 -6 30 -5 32 24 32 18 0 42 -10 56 -22z m191 -3
c16 -15 25 -36 25 -55 0 -27 -3 -30 -30 -30 -19 0 -40 9 -55 25 -16 15 -25 36
-25 55 0 27 3 30 30 30 19 0 40 -9 55 -25z m945 -397 l0 -243 -790 0 -790 0 0
243 0 242 790 0 790 0 0 -242z"/>
<path d="M1220 975 l0 -35 190 0 190 0 0 35 0 35 -190 0 -190 0 0 -35z"/>
<path d="M1320 750 c-23 -28 -29 -30 -67 -24 -74 11 -129 -16 -174 -86 l-16
-24 -34 28 c-47 40 -90 56 -149 56 -67 0 -90 -22 -90 -87 0 -101 78 -202 169
-220 78 -16 117 -8 224 45 112 55 155 91 164 134 4 23 11 28 34 28 26 0 29 3
29 35 0 32 -2 35 -30 35 -37 0 -37 6 -3 42 26 27 26 28 8 48 -24 27 -36 25
-65 -10z m-56 -106 c18 -18 21 -47 6 -74 -9 -17 -141 -90 -162 -90 -4 0 -8 18
-8 39 0 31 9 50 40 90 35 43 46 51 75 51 18 0 41 -7 49 -16z m-299 -35 c39
-24 60 -56 70 -112 7 -37 7 -37 -26 -37 -42 0 -97 27 -121 60 -9 14 -20 44
-24 68 l-7 42 36 0 c20 0 52 -10 72 -21z"/>
</g>
</svg>
